<?xml version="1.0" encoding="UTF-8" standalone="no"?>
<!-- Created with Inkscape (http://www.inkscape.org/) -->

<svg
   xmlns:dc="http://purl.org/dc/elements/1.1/"
   xmlns:cc="http://creativecommons.org/ns#"
   xmlns:rdf="http://www.w3.org/1999/02/22-rdf-syntax-ns#"
   xmlns:svg="http://www.w3.org/2000/svg"
   xmlns="http://www.w3.org/2000/svg"
   xmlns:sodipodi="http://sodipodi.sourceforge.net/DTD/sodipodi-0.dtd"
   xmlns:inkscape="http://www.inkscape.org/namespaces/inkscape"
   width="210mm"
   height="297mm"
   viewBox="0 0 210 297"
   version="1.1"
   id="svg2421"
   inkscape:version="0.92.4 (5da689c313, 2019-01-14)"
   sodipodi:docname="logo.svg">
  <defs
     id="defs2415" />
  <sodipodi:namedview
     id="base"
     pagecolor="#ffffff"
     bordercolor="#666666"
     borderopacity="1.0"
     inkscape:pageopacity="0.0"
     inkscape:pageshadow="2"
     inkscape:zoom="0.7"
     inkscape:cx="522.76309"
     inkscape:cy="474.45935"
     inkscape:document-units="mm"
     inkscape:current-layer="layer1"
     showgrid="false" />
  <metadata
     id="metadata2418">
    <rdf:RDF>
      <cc:Work
         rdf:about="">
        <dc:format>image/svg+xml</dc:format>
        <dc:type
           rdf:resource="http://purl.org/dc/dcmitype/StillImage" />
        <dc:title></dc:title>
      </cc:Work>
    </rdf:RDF>
  </metadata>
  <g
     inkscape:label="Layer 1"
     inkscape:groupmode="layer"
     id="layer1">
    <path
       style="fill:#000000;stroke-width:1"
       d="m 47.797232,144.58297 c 0.01557,-1.06492 0.02936,-2.32205 0.02936,-2.79364 v -0.85743 h 1.706456 1.706433 l 0.01112,1.07533 0.01112,1.07533 5.915923,0.0111 5.915946,0.0111 -0.03158,-9.69891 c -0.01779,-5.3344 -0.03559,-9.70283 -0.04048,-9.70763 -0.0044,-0.004 -2.652808,-0.0156 -5.884362,-0.0236 l -5.875533,-0.0156 -0.01112,1.09802 -0.01112,1.09802 -1.717554,-0.0111 -1.717554,-0.0111 -0.01557,-0.3104 c -0.0089,-0.17081 -7.12e-4,-1.43286 0.01557,-2.80474 l 0.03136,-2.49434 h 9.329035 9.329056 v 13.1479 13.1479 h -9.363753 -9.363731 z m -0.01557,-7.77502 v -1.72941 h -1.729386 -1.729409 v -1.6371 c 0,-0.90038 0.01112,-1.66865 0.02691,-1.70721 0.0238,-0.0623 0.217744,-0.0701 1.729387,-0.0701 h 1.702496 v -1.70723 -1.70723 h 1.7067 1.706701 l 0.01112,1.69613 0.01112,1.69616 1.71831,0.0111 1.718333,0.0111 v 1.70619 1.70619 l -1.718333,0.0111 -1.71831,0.0111 -0.01112,1.71833 -0.01112,1.71831 H 49.48836 47.781638 Z"
       id="path2977"
       inkscape:connector-curvature="0" />
    <text
       xml:space="preserve"
       style="font-weight:bold;font-size:23.53890228px;line-height:1.25;font-family:Butler;-inkscape-font-specification:'Butler Bold';letter-spacing:0px;word-spacing:0px;stroke-width:0.26458332"
       x="27.786104"
       y="141.72714"
       id="text2981"><tspan
         sodipodi:role="line"
         id="tspan2979"
         x="27.786104"
         y="141.72714"
         style="font-style:normal;font-variant:normal;font-weight:bold;font-stretch:normal;font-family:Bahnschrift;-inkscape-font-specification:'Bahnschrift Bold';stroke-width:0.26458332">B    RDERATOR</tspan></text>
    <path
       inkscape:connector-curvature="0"
       id="path2989"
       d="m 47.797232,186.53833 c 0.01557,-1.06492 0.02936,-2.32205 0.02936,-2.79364 v -0.85743 h 1.706456 1.706433 l 0.01112,1.07533 0.01112,1.07533 5.915923,0.0111 5.915946,0.0111 -0.03158,-9.69891 c -0.01779,-5.3344 -0.03559,-9.70283 -0.04048,-9.70763 -0.0044,-0.004 -2.652808,-0.0156 -5.884362,-0.0236 l -5.875533,-0.0156 -0.01112,1.09802 -0.01112,1.09802 -1.717554,-0.0111 -1.717554,-0.0111 -0.01557,-0.3104 c -0.0089,-0.17081 -7.12e-4,-1.43286 0.01557,-2.80474 l 0.03136,-2.49434 h 9.329035 9.329056 v 13.1479 13.1479 h -9.363753 -9.363731 z m -0.01557,-7.77502 v -1.72941 h -1.729386 -1.729409 v -1.6371 c 0,-0.90038 0.01112,-1.66865 0.02691,-1.70721 0.0238,-0.0623 0.217744,-0.0701 1.729387,-0.0701 h 1.702496 v -1.70723 -1.70723 h 1.7067 1.706701 l 0.01112,1.69613 0.01112,1.69616 1.71831,0.0111 1.718333,0.0111 v 1.70619 1.70619 l -1.718333,0.0111 -1.71831,0.0111 -0.01112,1.71833 -0.01112,1.71831 H 49.48836 47.781638 Z"
       style="fill:#ffffff;stroke-width:1"
       inkscape:export-xdpi="32.841743"
       inkscape:export-ydpi="32.841743" />
    <text
       id="text2993"
       y="183.6825"
       x="27.786104"
       style="font-weight:bold;font-size:23.53890228px;line-height:1.25;font-family:Butler;-inkscape-font-specification:'Butler Bold';letter-spacing:0px;word-spacing:0px;stroke-width:0.26458332;fill:#ffffff;"
       xml:space="preserve"
       inkscape:export-xdpi="32.841743"
       inkscape:export-ydpi="32.841743"><tspan
         style="font-style:normal;font-variant:normal;font-weight:bold;font-stretch:normal;font-family:Bahnschrift;-inkscape-font-specification:'Bahnschrift Bold';stroke-width:0.26458332;fill:#ffffff;"
         y="183.6825"
         x="27.786104"
         id="tspan2991"
         sodipodi:role="line">B    RDERATOR</tspan></text>
  </g>
</svg>
